<svg width="65" height="53" viewBox="0 0 65 53" fill="none" xmlns="http://www.w3.org/2000/svg">
<path d="M32.5 0C24.6598 0 18.3182 6.34664 18.3182 14.1936C18.3182 20.7202 22.7029 26.201 28.6875 27.8655C28.8051 27.8999 28.9051 27.9779 28.9666 28.0839L32.5 34.1912L36.0334 28.0839C36.0949 27.9779 36.1949 27.8999 36.3125 27.8655C42.2954 26.1994 46.6818 20.7183 46.6818 14.1936C46.6818 6.34574 40.3403 0 32.5 0H32.5ZM32.5 4.2134C38.0306 4.2134 42.5293 8.70731 42.5293 14.2427C42.5293 19.778 38.0308 24.2719 32.5 24.2719C26.9693 24.2719 22.4708 19.778 22.4708 14.2427C22.4708 8.70731 26.9693 4.2134 32.5 4.2134ZM29.8895 6.99384C29.6998 7.01823 29.5494 7.1654 29.5212 7.35457C29.493 7.54375 29.5938 7.72859 29.7681 7.80718C30.108 7.97413 30.2988 8.1438 30.3996 8.26847C30.5004 8.39341 30.5224 8.46415 30.521 8.57202C30.5172 8.78776 30.3318 9.16177 30.0717 9.5678C29.8115 9.97382 29.4854 10.4126 29.4646 10.9885C29.454 11.2764 29.5413 11.5859 29.7437 11.8507C29.9462 12.1155 30.2381 12.3494 30.6421 12.5548H30.6424C30.7438 12.6063 30.8614 12.6155 30.9695 12.5803C31.078 12.545 31.1677 12.4681 31.2192 12.3667C31.2707 12.2653 31.2799 12.1474 31.2444 12.0393C31.2091 11.9312 31.1322 11.8414 31.0308 11.7899C30.7012 11.6222 30.518 11.4642 30.4237 11.3406C30.3291 11.217 30.3104 11.1357 30.3145 11.0248C30.3226 10.8031 30.527 10.437 30.788 10.0291C31.0492 9.62144 31.3755 9.16288 31.3829 8.58423C31.3867 8.29478 31.2774 7.98283 31.0671 7.72209C30.8571 7.46136 30.5568 7.24481 30.1443 7.04208L30.1445 7.04235C30.0808 7.00902 30.0098 6.99248 29.938 6.99384C29.9217 6.99275 29.9058 6.99275 29.8895 6.99384L29.8895 6.99384ZM32.1965 7.72236C32.0377 7.7435 31.9041 7.85164 31.8504 8.0026C31.7965 8.15356 31.8317 8.32187 31.9415 8.43868C32.2109 8.74169 32.2239 8.88805 32.1965 9.05798C32.1694 9.22791 32.0445 9.45259 31.8808 9.72579C31.7171 9.99898 31.5081 10.3367 31.4921 10.7701C31.4761 11.2034 31.6829 11.6639 32.1355 12.1057H32.1358C32.2128 12.1992 32.326 12.2556 32.4472 12.261C32.5683 12.2661 32.686 12.2195 32.7711 12.1331C32.8559 12.0463 32.8998 11.9279 32.8922 11.8067C32.8846 11.6859 32.8258 11.5737 32.7307 11.4986C32.3851 11.1614 32.3483 10.9603 32.3542 10.7945C32.3605 10.6286 32.4537 10.4346 32.6093 10.1752C32.7646 9.91609 32.9684 9.61254 33.0342 9.20384C33.1001 8.79513 32.9716 8.30325 32.5849 7.86822L32.5851 7.86795C32.4971 7.76686 32.3667 7.71292 32.2328 7.7224C32.2206 7.72186 32.2084 7.72186 32.1962 7.7224L32.1965 7.72236ZM26.854 13.4654C26.6581 13.5063 26.5166 13.6778 26.5142 13.8781C26.5142 13.8781 26.5033 14.6305 26.5627 15.5536C26.6223 16.4767 26.7378 17.5597 27.0847 18.3585C27.492 19.2965 28.3151 20.154 28.9423 20.7746L28.9425 20.7749C29.0236 20.854 29.1328 20.8977 29.2461 20.8963H33.1437H33.1434C33.2567 20.8977 33.366 20.854 33.447 20.7749C34.0181 20.2104 34.749 19.4525 35.1832 18.6138C35.2211 18.61 35.3943 18.594 35.6444 18.5531C35.9206 18.5081 36.2355 18.4512 36.5066 18.3346C37.1183 18.0712 37.7137 17.6655 38.0728 17.1811C38.2875 16.8919 38.5122 16.5312 38.5948 16.1006C38.6778 15.6699 38.5813 15.1534 38.2062 14.7405C37.9755 14.4869 37.6801 14.4064 37.3807 14.34C37.0809 14.2733 36.7559 14.2432 36.4578 14.2307C36.2307 14.2212 36.0494 14.2272 35.8751 14.2307V13.8787L35.8754 13.8781C35.8675 13.6488 35.68 13.4667 35.4504 13.4654H26.9385C26.9104 13.4626 26.8819 13.4626 26.8537 13.4654L26.854 13.4654ZM35.8634 15.0801C36.0309 15.0766 36.2089 15.0712 36.422 15.0801C36.6905 15.0915 36.9797 15.1164 37.199 15.1652C37.4185 15.214 37.564 15.3108 37.5754 15.3229C37.7852 15.5536 37.8009 15.7162 37.7576 15.9422C37.7142 16.1683 37.5681 16.4352 37.3933 16.6708C37.1903 16.9442 36.6561 17.3342 36.1669 17.5451C36.0625 17.5901 35.7709 17.6619 35.5235 17.7029C35.7064 17.0207 35.7948 16.2423 35.8392 15.5536C35.8501 15.3839 35.8574 15.2346 35.8633 15.0801H35.8634Z" fill="#E09446"/>
<path d="M10.0557 41.5967L8.88672 42.0889C8.79557 41.7926 8.67253 41.5215 8.51758 41.2754C8.36719 41.0293 8.1849 40.8197 7.9707 40.6465C7.76107 40.4688 7.52181 40.332 7.25293 40.2363C6.98405 40.1361 6.6901 40.0859 6.37109 40.0859C6.0293 40.0859 5.71484 40.1429 5.42773 40.2568C5.14518 40.3662 4.88997 40.5189 4.66211 40.7148C4.4388 40.9108 4.24284 41.1387 4.07422 41.3984C3.9056 41.6582 3.76432 41.9362 3.65039 42.2324C3.53646 42.5241 3.45215 42.8271 3.39746 43.1416C3.34277 43.4561 3.31543 43.7637 3.31543 44.0645C3.31543 44.543 3.37012 45.0192 3.47949 45.4932C3.59342 45.9671 3.77116 46.3932 4.0127 46.7715C4.25879 47.1497 4.57552 47.4574 4.96289 47.6943C5.35026 47.9268 5.81966 48.043 6.37109 48.043C6.66276 48.043 6.93848 47.9951 7.19824 47.8994C7.45801 47.7992 7.69271 47.6647 7.90234 47.4961C8.11654 47.3229 8.30339 47.1201 8.46289 46.8877C8.6224 46.6553 8.75 46.4046 8.8457 46.1357L10.0283 46.6074C9.85514 47.0404 9.61816 47.4209 9.31738 47.749C9.0166 48.0726 8.67253 48.3415 8.28516 48.5557C7.90234 48.7699 7.48991 48.9294 7.04785 49.0342C6.61035 49.1436 6.16829 49.1982 5.72168 49.1982C5.23861 49.1982 4.77376 49.139 4.32715 49.0205C3.88509 48.902 3.47266 48.7334 3.08984 48.5146C2.70703 48.2959 2.3584 48.0316 2.04395 47.7217C1.73405 47.4118 1.46745 47.0677 1.24414 46.6895C1.02539 46.3112 0.854492 45.901 0.731445 45.459C0.612956 45.0124 0.553711 44.5475 0.553711 44.0645C0.553711 43.5814 0.612956 43.1188 0.731445 42.6768C0.854492 42.2301 1.02539 41.8177 1.24414 41.4395C1.46745 41.0566 1.73405 40.7103 2.04395 40.4004C2.3584 40.0905 2.70703 39.8262 3.08984 39.6074C3.47266 39.3887 3.88509 39.2201 4.32715 39.1016C4.77376 38.9831 5.23861 38.9238 5.72168 38.9238C6.18652 38.9238 6.63997 38.9785 7.08203 39.0879C7.52865 39.1973 7.94336 39.3636 8.32617 39.5869C8.70898 39.8057 9.0485 40.0837 9.34473 40.4209C9.64551 40.7536 9.88249 41.1455 10.0557 41.5967ZM21.5737 44.29V44.4199C21.5646 44.8027 21.5235 45.1992 21.4506 45.6094C21.3823 46.0195 21.2843 46.4297 21.1567 46.8398C21.0291 47.25 20.8764 47.6556 20.6987 48.0566C20.5209 48.4577 20.3204 48.8405 20.0971 49.2051C19.8784 49.5742 19.6414 49.9183 19.3862 50.2373C19.131 50.5609 18.8621 50.8457 18.5795 51.0918L17.561 50.5039C17.7205 50.235 17.864 49.9411 17.9916 49.6221C18.1238 49.3076 18.2423 48.9772 18.3471 48.6309C18.4519 48.2845 18.5408 47.929 18.6137 47.5645C18.6912 47.1999 18.755 46.8376 18.8051 46.4775C18.8552 46.1175 18.8917 45.7643 18.9145 45.418C18.9418 45.0671 18.9555 44.7344 18.9555 44.4199C18.9555 44.1738 18.9532 43.8958 18.9487 43.5859C18.9487 43.2715 18.9304 42.9525 18.894 42.6289C18.8621 42.3053 18.8074 41.9909 18.7299 41.6855C18.6524 41.3757 18.5362 41.0999 18.3813 40.8584C18.2309 40.6169 18.0349 40.4232 17.7934 40.2773C17.5564 40.1315 17.2602 40.0586 16.9047 40.0586C16.5903 40.0586 16.3191 40.1133 16.0913 40.2227C15.8679 40.3275 15.6765 40.471 15.517 40.6533C15.3621 40.8311 15.2368 41.0384 15.1411 41.2754C15.0499 41.5124 14.977 41.763 14.9223 42.0273C14.8722 42.2871 14.838 42.5514 14.8198 42.8203C14.8061 43.0846 14.7993 43.3353 14.7993 43.5723V45.4795H17.7455V46.6074H14.7993V49H12.0854V43.9961C12.0854 43.2806 12.1993 42.6152 12.4272 42C12.6551 41.3848 12.9763 40.8516 13.3911 40.4004C13.8103 39.9447 14.3116 39.5892 14.895 39.334C15.4829 39.0742 16.1368 38.9443 16.8569 38.9443C17.3445 38.9443 17.8002 39.015 18.2241 39.1562C18.6524 39.293 19.0421 39.4844 19.393 39.7305C19.7439 39.972 20.0561 40.2614 20.3295 40.5986C20.6075 40.9313 20.8377 41.2959 21.02 41.6924C21.2068 42.0889 21.3481 42.5081 21.4438 42.9502C21.5395 43.3923 21.5828 43.8389 21.5737 44.29ZM26.618 49H23.9042V39.1562H30.9725V40.4141H26.618V43.4561H29.9813V44.707H26.618V49ZM40.0228 49H32.9544V39.1562H40.0228V40.4141H35.6683V43.4561H39.0316V44.707H35.6683V47.7422H40.0228V49ZM43.5222 49H42.2644V39.1562H44.0281L50.0095 45.917V39.1562H51.2605V49H49.4968L43.5222 42.2461V49ZM63.4211 44.29V44.4199C63.412 44.8027 63.371 45.1992 63.298 45.6094C63.2297 46.0195 63.1317 46.4297 63.0041 46.8398C62.8765 47.25 62.7238 47.6556 62.5461 48.0566C62.3684 48.4577 62.1678 48.8405 61.9445 49.2051C61.7258 49.5742 61.4888 49.9183 61.2336 50.2373C60.9784 50.5609 60.7095 50.8457 60.427 51.0918L59.4084 50.5039C59.5679 50.235 59.7115 49.9411 59.8391 49.6221C59.9712 49.3076 60.0897 48.9772 60.1945 48.6309C60.2993 48.2845 60.3882 47.929 60.4611 47.5645C60.5386 47.1999 60.6024 46.8376 60.6525 46.4775C60.7027 46.1175 60.7391 45.7643 60.7619 45.418C60.7893 45.0671 60.8029 44.7344 60.8029 44.4199C60.8029 44.1738 60.8007 43.8958 60.7961 43.5859C60.7961 43.2715 60.7779 42.9525 60.7414 42.6289C60.7095 42.3053 60.6548 41.9909 60.5773 41.6855C60.4999 41.3757 60.3837 41.0999 60.2287 40.8584C60.0783 40.6169 59.8824 40.4232 59.6408 40.2773C59.4038 40.1315 59.1076 40.0586 58.7521 40.0586C58.4377 40.0586 58.1665 40.1133 57.9387 40.2227C57.7154 40.3275 57.524 40.471 57.3645 40.6533C57.2095 40.8311 57.0842 41.0384 56.9885 41.2754C56.8973 41.5124 56.8244 41.763 56.7697 42.0273C56.7196 42.2871 56.6854 42.5514 56.6672 42.8203C56.6535 43.0846 56.6467 43.3353 56.6467 43.5723V45.4795H59.593V46.6074H56.6467V49H53.9328V43.9961C53.9328 43.2806 54.0467 42.6152 54.2746 42C54.5025 41.3848 54.8238 40.8516 55.2385 40.4004C55.6577 39.9447 56.159 39.5892 56.7424 39.334C57.3303 39.0742 57.9842 38.9443 58.7043 38.9443C59.1919 38.9443 59.6477 39.015 60.0715 39.1562C60.4999 39.293 60.8895 39.4844 61.2404 39.7305C61.5913 39.972 61.9035 40.2614 62.177 40.5986C62.4549 40.9313 62.6851 41.2959 62.8674 41.6924C63.0542 42.0889 63.1955 42.5081 63.2912 42.9502C63.3869 43.3923 63.4302 43.8389 63.4211 44.29Z" fill="#1C1A1A"/>
</svg>
