<svg width="15" height="23" viewBox="0 0 15 23" fill="none" xmlns="http://www.w3.org/2000/svg">
<path d="M7.49994 0.111328C7.81142 0.111328 8.06677 0.365277 8.06677 0.675933L8.06677 22.1248C8.06677 22.4351 7.81182 22.6894 7.49994 22.6894C7.18847 22.6894 6.93312 22.4355 6.93312 22.1248L6.93312 0.675933C6.93312 0.365287 7.18846 0.111328 7.49994 0.111328Z" fill="#EAB665"/>
<path d="M7.09828 0.276591C6.87772 0.496291 6.87772 0.854975 7.09828 1.07468L13.7329 7.68331C13.9535 7.90301 14.3136 7.90301 14.5342 7.68331C14.7547 7.46361 14.7547 7.10493 14.5342 6.88523L7.89951 0.276591C7.67934 0.0568911 7.31845 0.0568911 7.09828 0.276591Z" fill="#EAB665"/>
<path d="M7.90074 0.276591C7.68017 0.0568914 7.32008 0.0568914 7.09951 0.276591L0.46486 6.88482C0.244295 7.10452 0.244295 7.46321 0.46486 7.68291C0.685425 7.90261 1.04552 7.90261 1.26609 7.68291L7.90074 1.07468C8.1213 0.854976 8.1213 0.495898 7.90074 0.276591Z" fill="#EAB665"/>
</svg>
